<svg width="87" height="87" viewBox="0 0 87 87" fill="none" xmlns="http://www.w3.org/2000/svg">
<circle cx="43.935" cy="43.9351" r="41.325" stroke="#E7CDFE"/>
<mask id="path-2-outside-1_1_1731" maskUnits="userSpaceOnUse" x="42.6094" y="1.60986" width="44" height="44" fill="black">
<rect fill="white" x="42.6094" y="1.60986" width="44" height="44"/>
<path d="M43.9344 2.83356C43.9344 2.71002 44.0346 2.6098 44.1581 2.61047C49.5089 2.63944 54.8039 3.70731 59.7488 5.75554C64.7626 7.83232 69.3182 10.8763 73.1556 14.7137C76.993 18.5511 80.0369 23.1067 82.1137 28.1205C84.1619 33.0653 85.2298 38.3603 85.2588 43.7111C85.2594 43.8347 85.1592 43.9349 85.0357 43.9349C84.9121 43.9349 84.812 43.8347 84.8114 43.7111C84.7824 38.4191 83.7261 33.1823 81.7004 28.2917C79.6461 23.3322 76.635 18.8259 72.8392 15.03C69.0434 11.2342 64.5371 8.22317 59.5776 6.16888C54.687 4.14313 49.4501 3.08683 44.1581 3.05787C44.0346 3.05719 43.9344 2.95711 43.9344 2.83356Z"/>
</mask>
<path d="M43.9344 2.83356C43.9344 2.71002 44.0346 2.6098 44.1581 2.61047C49.5089 2.63944 54.8039 3.70731 59.7488 5.75554C64.7626 7.83232 69.3182 10.8763 73.1556 14.7137C76.993 18.5511 80.0369 23.1067 82.1137 28.1205C84.1619 33.0653 85.2298 38.3603 85.2588 43.7111C85.2594 43.8347 85.1592 43.9349 85.0357 43.9349C84.9121 43.9349 84.812 43.8347 84.8114 43.7111C84.7824 38.4191 83.7261 33.1823 81.7004 28.2917C79.6461 23.3322 76.635 18.8259 72.8392 15.03C69.0434 11.2342 64.5371 8.22317 59.5776 6.16888C54.687 4.14313 49.4501 3.08683 44.1581 3.05787C44.0346 3.05719 43.9344 2.95711 43.9344 2.83356Z" fill="#8807F7"/>
<path d="M43.9344 2.83356C43.9344 2.71002 44.0346 2.6098 44.1581 2.61047C49.5089 2.63944 54.8039 3.70731 59.7488 5.75554C64.7626 7.83232 69.3182 10.8763 73.1556 14.7137C76.993 18.5511 80.0369 23.1067 82.1137 28.1205C84.1619 33.0653 85.2298 38.3603 85.2588 43.7111C85.2594 43.8347 85.1592 43.9349 85.0357 43.9349C84.9121 43.9349 84.812 43.8347 84.8114 43.7111C84.7824 38.4191 83.7261 33.1823 81.7004 28.2917C79.6461 23.3322 76.635 18.8259 72.8392 15.03C69.0434 11.2342 64.5371 8.22317 59.5776 6.16888C54.687 4.14313 49.4501 3.08683 44.1581 3.05787C44.0346 3.05719 43.9344 2.95711 43.9344 2.83356Z" stroke="#8807F7" stroke-width="2" mask="url(#path-2-outside-1_1_1731)"/>
<circle cx="43.935" cy="43.9351" r="32.625" fill="#8807F7"/>
<path d="M32.2983 43.0649H52.0908" stroke="white" stroke-width="2.8275" stroke-linecap="round" stroke-linejoin="round"/>
<path d="M45.6745 33.1687L55.5708 43.065L45.6745 52.9612" stroke="white" stroke-width="2.8275" stroke-linecap="round" stroke-linejoin="round"/>
</svg>
