<svg width="60" height="63" viewBox="0 0 60 63" fill="none" xmlns="http://www.w3.org/2000/svg">
<rect x="4" y="4" width="52" height="59" rx="10" fill="#D1FAF6"/>
<rect width="60" height="60" rx="10" fill="#14B8A6"/>
<path d="M30 41.7601C29.65 41.7601 29.3 41.6784 29.0083 41.5151C26.8267 40.3251 22.9883 39.0651 20.585 38.7501L20.2467 38.7034C18.7183 38.5168 17.4583 37.0818 17.4583 35.5301V21.4368C17.4583 20.5151 17.82 19.6751 18.485 19.0684C19.15 18.4618 20.0133 18.1701 20.9233 18.2518C23.49 18.4501 27.3633 19.7334 29.5567 21.1101L29.8367 21.2734C29.9183 21.3201 30.0933 21.3201 30.1633 21.2851L30.35 21.1684C32.5433 19.7918 36.4167 18.4851 38.995 18.2634C39.0183 18.2634 39.1117 18.2634 39.135 18.2634C39.9867 18.1818 40.8617 18.4851 41.515 19.0918C42.18 19.6984 42.5417 20.5384 42.5417 21.4601V35.5418C42.5417 37.1051 41.2817 38.5284 39.7417 38.7151L39.3567 38.7618C36.9533 39.0768 33.1033 40.3484 30.9683 41.5268C30.6883 41.6901 30.35 41.7601 30 41.7601ZM20.6433 19.9901C20.27 19.9901 19.9317 20.1184 19.6633 20.3634C19.3717 20.6318 19.2083 21.0168 19.2083 21.4368V35.5301C19.2083 36.2184 19.8033 36.8834 20.4683 36.9768L20.8183 37.0234C23.4433 37.3734 27.4683 38.6918 29.8017 39.9634C29.9067 40.0101 30.0583 40.0218 30.1167 39.9984C32.45 38.7034 36.4983 37.3734 39.135 37.0234L39.5317 36.9768C40.1967 36.8951 40.7917 36.2184 40.7917 35.5301V21.4484C40.7917 21.0168 40.6283 20.6434 40.3367 20.3634C40.0333 20.0951 39.6483 19.9668 39.2167 19.9901C39.1933 19.9901 39.1 19.9901 39.0767 19.9901C36.8483 20.1884 33.255 21.3901 31.295 22.6151L31.1083 22.7434C30.4667 23.1401 29.5567 23.1401 28.9383 22.7551L28.6583 22.5918C26.6633 21.3668 23.07 20.1768 20.7833 19.9901C20.7367 19.9901 20.69 19.9901 20.6433 19.9901Z" fill="white"/>
<path d="M30 40.7803C29.5217 40.7803 29.125 40.3836 29.125 39.9053V22.4053C29.125 21.9269 29.5217 21.5303 30 21.5303C30.4783 21.5303 30.875 21.9269 30.875 22.4053V39.9053C30.875 40.3953 30.4783 40.7803 30 40.7803Z" fill="white"/>
<path d="M25.0417 26.7803H22.4167C21.9383 26.7803 21.5417 26.3836 21.5417 25.9053C21.5417 25.4269 21.9383 25.0303 22.4167 25.0303H25.0417C25.52 25.0303 25.9167 25.4269 25.9167 25.9053C25.9167 26.3836 25.52 26.7803 25.0417 26.7803Z" fill="white"/>
<path d="M25.9167 30.2803H22.4167C21.9383 30.2803 21.5417 29.8836 21.5417 29.4053C21.5417 28.9269 21.9383 28.5303 22.4167 28.5303H25.9167C26.395 28.5303 26.7917 28.9269 26.7917 29.4053C26.7917 29.8836 26.395 30.2803 25.9167 30.2803Z" fill="white"/>
</svg>
