<svg width="60" height="63" viewBox="0 0 60 63" fill="none" xmlns="http://www.w3.org/2000/svg">
<rect x="4" y="4" width="52" height="59" rx="10" fill="#FEF4CD"/>
<rect width="60" height="60" rx="10" fill="#FACC15"/>
<path d="M17.8125 23.6094C17.8125 22.5278 18.2422 21.4905 19.007 20.7257C19.7718 19.9609 20.809 19.5312 21.8906 19.5312H39.1094C40.191 19.5312 41.2282 19.9609 41.993 20.7257C42.7578 21.4905 43.1875 22.5278 43.1875 23.6094V35.3906C43.1875 36.4722 42.7578 37.5095 41.993 38.2743C41.2282 39.0391 40.191 39.4688 39.1094 39.4688H21.8906C20.809 39.4688 19.7718 39.0391 19.007 38.2743C18.2422 37.5095 17.8125 36.4722 17.8125 35.3906V23.6094ZM21.8906 21.3438C21.2897 21.3438 20.7135 21.5824 20.2886 22.0073C19.8637 22.4322 19.625 23.0085 19.625 23.6094V24.9688H41.375V23.6094C41.375 23.0085 41.1363 22.4322 40.7114 22.0073C40.2865 21.5824 39.7103 21.3438 39.1094 21.3438H21.8906ZM19.625 35.3906C19.625 35.9915 19.8637 36.5678 20.2886 36.9927C20.7135 37.4176 21.2897 37.6562 21.8906 37.6562H39.1094C39.7103 37.6562 40.2865 37.4176 40.7114 36.9927C41.1363 36.5678 41.375 35.9915 41.375 35.3906V26.7812H19.625V35.3906ZM35.0312 32.2188H37.75C37.9904 32.2188 38.2209 32.3142 38.3908 32.4842C38.5608 32.6541 38.6562 32.8846 38.6562 33.125C38.6562 33.3654 38.5608 33.5959 38.3908 33.7658C38.2209 33.9358 37.9904 34.0312 37.75 34.0312H35.0312C34.7909 34.0312 34.5604 33.9358 34.3904 33.7658C34.2205 33.5959 34.125 33.3654 34.125 33.125C34.125 32.8846 34.2205 32.6541 34.3904 32.4842C34.5604 32.3142 34.7909 32.2188 35.0312 32.2188Z" fill="white"/>
</svg>
