<svg width="60" height="63" viewBox="0 0 60 63" fill="none" xmlns="http://www.w3.org/2000/svg">
<rect x="4" y="4" width="52" height="59" rx="10" fill="#D09CFC"/>
<rect width="60" height="60" rx="10" fill="#8807F7"/>
<g filter="url(#filter0_i_5_3386)">
<path d="M21.0019 37.294L18.304 38.9192C18.1848 38.9951 18.0602 39.0276 17.9302 39.0168C17.8001 39.0059 17.6864 38.9626 17.5889 38.8867C17.4914 38.8109 17.4155 38.7162 17.3613 38.6026C17.3072 38.4887 17.2963 38.3612 17.3288 38.2204L18.0439 35.1487L15.6548 33.0846C15.5465 32.9871 15.4789 32.876 15.452 32.7511C15.4247 32.6268 15.4327 32.505 15.4761 32.3858C15.5194 32.2666 15.5844 32.1691 15.6711 32.0932C15.7578 32.0174 15.8769 31.9686 16.0286 31.947L19.1816 31.6707L20.4005 28.7778C20.4547 28.6477 20.5388 28.5502 20.6528 28.4852C20.7663 28.4202 20.8827 28.3877 21.0019 28.3877C21.1211 28.3877 21.2376 28.4202 21.3516 28.4852C21.4652 28.5502 21.549 28.6477 21.6032 28.7778L22.8221 31.6707L25.9751 31.947C26.1268 31.9686 26.246 32.0174 26.3327 32.0932C26.4193 32.1691 26.4843 32.2666 26.5277 32.3858C26.571 32.505 26.5793 32.6268 26.5524 32.7511C26.5251 32.876 26.4573 32.9871 26.3489 33.0846L23.9598 35.1487L24.6749 38.2204C24.7074 38.3612 24.6966 38.4887 24.6424 38.6026C24.5882 38.7162 24.5124 38.8109 24.4149 38.8867C24.3174 38.9626 24.2036 39.0059 24.0736 39.0168C23.9436 39.0276 23.8189 38.9951 23.6998 38.9192L21.0019 37.294Z" fill="white"/>
<path d="M33.0737 27.8342L28.659 30.4937C28.464 30.6178 28.2601 30.671 28.0473 30.6533C27.8345 30.6355 27.6484 30.5646 27.4888 30.4405C27.3292 30.3164 27.2051 30.1614 27.1165 29.9756C27.0278 29.7891 27.0101 29.5806 27.0633 29.3501L28.2335 24.3237L24.324 20.9462C24.1467 20.7866 24.0361 20.6047 23.9921 20.4004C23.9474 20.1969 23.9606 19.9976 24.0315 19.8026C24.1024 19.6076 24.2088 19.448 24.3506 19.3239C24.4925 19.1998 24.6875 19.12 24.9357 19.0845L30.0951 18.6324L32.0897 13.8985C32.1784 13.6858 32.3159 13.5262 32.5025 13.4198C32.6883 13.3134 32.8787 13.2603 33.0737 13.2603C33.2687 13.2603 33.4595 13.3134 33.646 13.4198C33.8319 13.5262 33.9691 13.6858 34.0577 13.8985L36.0523 18.6324L41.2117 19.0845C41.46 19.12 41.655 19.1998 41.7968 19.3239C41.9387 19.448 42.045 19.6076 42.116 19.8026C42.1869 19.9976 42.2004 20.1969 42.1564 20.4004C42.1117 20.6047 42.0007 20.7866 41.8234 20.9462L37.914 24.3237L39.0842 29.3501C39.1373 29.5806 39.1196 29.7891 39.031 29.9756C38.9423 30.1614 38.8182 30.3164 38.6586 30.4405C38.4991 30.5646 38.3129 30.6355 38.1001 30.6533C37.8874 30.671 37.6835 30.6178 37.4885 30.4937L33.0737 27.8342Z" fill="white"/>
<path d="M32.3651 41.5484L29.6672 43.1736C29.548 43.2495 29.4234 43.282 29.2934 43.2712C29.1634 43.2603 29.0496 43.217 28.9521 43.1411C28.8546 43.0653 28.7788 42.9706 28.7246 42.857C28.6704 42.7431 28.6596 42.6156 28.6921 42.4748L29.4072 39.4031L27.0181 37.339C26.9097 37.2415 26.8421 37.1304 26.8153 37.0055C26.7879 36.8811 26.796 36.7594 26.8393 36.6402C26.8826 36.521 26.9477 36.4235 27.0343 36.3476C27.121 36.2718 27.2402 36.223 27.3919 36.2014L30.5449 35.9251L31.7638 33.0321C31.818 32.9021 31.902 32.8046 32.016 32.7396C32.1296 32.6746 32.2459 32.6421 32.3651 32.6421C32.4843 32.6421 32.6009 32.6746 32.7149 32.7396C32.8284 32.8046 32.9123 32.9021 32.9665 33.0321L34.1854 35.9251L37.3383 36.2014C37.49 36.223 37.6092 36.2718 37.6959 36.3476C37.7826 36.4235 37.8476 36.521 37.8909 36.6402C37.9343 36.7594 37.9425 36.8811 37.9156 37.0055C37.8883 37.1304 37.8205 37.2415 37.7122 37.339L35.3231 39.4031L36.0382 42.4748C36.0707 42.6156 36.0598 42.7431 36.0057 42.857C35.9515 42.9706 35.8756 43.0653 35.7781 43.1411C35.6806 43.217 35.5668 43.2603 35.4368 43.2712C35.3068 43.282 35.1822 43.2495 35.063 43.1736L32.3651 41.5484Z" fill="white"/>
</g>
<defs>
<filter id="filter0_i_5_3386" x="13.2045" y="-1.50542" width="32.6387" height="48.8497" filterUnits="userSpaceOnUse" color-interpolation-filters="sRGB">
<feFlood flood-opacity="0" result="BackgroundImageFix"/>
<feBlend mode="normal" in="SourceGraphic" in2="BackgroundImageFix" result="shape"/>
<feColorMatrix in="SourceAlpha" type="matrix" values="0 0 0 0 0 0 0 0 0 0 0 0 0 0 0 0 0 0 127 0" result="hardAlpha"/>
<feOffset dy="-9.89898"/>
<feGaussianBlur stdDeviation="4.94949"/>
<feComposite in2="hardAlpha" operator="arithmetic" k2="-1" k3="1"/>
<feColorMatrix type="matrix" values="0 0 0 0 0.791667 0 0 0 0 0.791667 0 0 0 0 0.791667 0 0 0 0.25 0"/>
<feBlend mode="normal" in2="shape" result="effect1_innerShadow_5_3386"/>
</filter>
</defs>
</svg>
