<svg width="60" height="63" viewBox="0 0 60 63" fill="none" xmlns="http://www.w3.org/2000/svg">
<rect x="4" y="4" width="52" height="59" rx="10" fill="#FAD1DE"/>
<rect width="60" height="60" rx="10" fill="#E8356D"/>
<path d="M30.5 41.375C29.2111 41.375 27.9927 41.1635 26.8448 40.7406C25.6969 40.3177 24.6597 39.7337 23.7333 38.9885L22.1927 40.5292C21.951 40.7708 21.6691 40.8864 21.3469 40.876C21.0247 40.8663 20.7427 40.7406 20.501 40.499C20.2594 40.2573 20.1385 39.9701 20.1385 39.6374C20.1385 39.3055 20.2594 39.0188 20.501 38.7771L22.0115 37.2667C21.2663 36.3403 20.6823 35.2979 20.2594 34.1395C19.8365 32.9819 19.625 31.7688 19.625 30.5C19.625 27.4792 20.6875 24.9115 22.8126 22.7969C24.9368 20.6823 27.4993 19.625 30.5 19.625H38.9583C39.6229 19.625 40.192 19.8614 40.6657 20.3343C41.1386 20.808 41.375 21.3771 41.375 22.0417V30.5C41.375 33.5007 40.3177 36.0636 38.2031 38.1886C36.0885 40.3129 33.5208 41.375 30.5 41.375ZM30.5 38.9583C32.8563 38.9583 34.8548 38.1326 36.4958 36.4813C38.1375 34.8299 38.9583 32.8361 38.9583 30.5V22.0417H30.5C28.1639 22.0417 26.1701 22.8621 24.5188 24.503C22.8674 26.1448 22.0417 28.1438 22.0417 30.5C22.0417 32.8361 22.8674 34.8299 24.5188 36.4813C26.1701 38.1326 28.1639 38.9583 30.5 38.9583ZM28.899 36.3906L35.1521 30.8021C35.3535 30.6208 35.4139 30.4041 35.3333 30.152C35.2528 29.9007 35.0715 29.7549 34.7896 29.7146L29.8958 29.2313L32.826 25.2135C32.9066 25.1128 32.9416 25.0069 32.9312 24.8958C32.9215 24.7854 32.8764 24.6799 32.7958 24.5792C32.6951 24.4785 32.5795 24.4281 32.449 24.4281C32.3177 24.4281 32.2017 24.4785 32.101 24.5792L25.8781 30.1677C25.6767 30.349 25.6163 30.5653 25.6969 30.8166C25.7774 31.0687 25.9587 31.2149 26.2406 31.2552L31.1344 31.7385L28.174 35.7563C28.1135 35.8569 28.0833 35.9629 28.0833 36.074C28.0833 36.1844 28.1337 36.2899 28.2344 36.3906C28.3351 36.4913 28.4458 36.5417 28.5667 36.5417C28.6875 36.5417 28.7983 36.4913 28.899 36.3906Z" fill="white"/>
</svg>
