<svg width="20" height="21" viewBox="0 0 20 21" fill="none" xmlns="http://www.w3.org/2000/svg">
<path d="M10 14.6668C9.55801 14.6668 9.13409 14.4912 8.82153 14.1787C8.50897 13.8661 8.33337 13.4422 8.33337 13.0002C8.33337 12.0752 9.07504 11.3335 10 11.3335C10.4421 11.3335 10.866 11.5091 11.1786 11.8217C11.4911 12.1342 11.6667 12.5581 11.6667 13.0002C11.6667 13.4422 11.4911 13.8661 11.1786 14.1787C10.866 14.4912 10.4421 14.6668 10 14.6668ZM15 17.1668V8.8335H5.00004V17.1668H15ZM15 7.16683C15.4421 7.16683 15.866 7.34242 16.1786 7.65498C16.4911 7.96755 16.6667 8.39147 16.6667 8.8335V17.1668C16.6667 17.6089 16.4911 18.0328 16.1786 18.3453C15.866 18.6579 15.4421 18.8335 15 18.8335H5.00004C4.55801 18.8335 4.13409 18.6579 3.82153 18.3453C3.50897 18.0328 3.33337 17.6089 3.33337 17.1668V8.8335C3.33337 7.9085 4.07504 7.16683 5.00004 7.16683H5.83337V5.50016C5.83337 4.39509 6.27236 3.33529 7.05376 2.55388C7.83516 1.77248 8.89497 1.3335 10 1.3335C10.5472 1.3335 11.089 1.44127 11.5946 1.65066C12.1001 1.86006 12.5594 2.16697 12.9463 2.55388C13.3332 2.9408 13.6401 3.40013 13.8495 3.90565C14.0589 4.41117 14.1667 4.95299 14.1667 5.50016V7.16683H15ZM10 3.00016C9.337 3.00016 8.70111 3.26355 8.23227 3.7324C7.76343 4.20124 7.50004 4.83712 7.50004 5.50016V7.16683H12.5V5.50016C12.5 4.83712 12.2366 4.20124 11.7678 3.7324C11.299 3.26355 10.6631 3.00016 10 3.00016Z" fill="#9CA3AF"/>
</svg>
