<svg width="16" height="17" viewBox="0 0 16 17" fill="none" xmlns="http://www.w3.org/2000/svg">
<path d="M10.478 2.14709C10.4973 2.08432 10.5041 2.01836 10.4979 1.95298C10.4917 1.8876 10.4727 1.82408 10.442 1.76604C10.4112 1.708 10.3694 1.65659 10.3188 1.61473C10.2682 1.57288 10.2098 1.5414 10.147 1.52209C10.0843 1.50279 10.0183 1.49604 9.95293 1.50222C9.88755 1.50841 9.82402 1.52742 9.76599 1.55815C9.70795 1.58889 9.65654 1.63075 9.61468 1.68136C9.57282 1.73197 9.54134 1.79032 9.52204 1.85309L5.52204 14.8531C5.48305 14.9799 5.49602 15.1169 5.5581 15.2341C5.62017 15.3514 5.72627 15.4391 5.85304 15.4781C5.97981 15.5171 6.11688 15.5041 6.23409 15.442C6.3513 15.38 6.43905 15.2739 6.47804 15.1471L10.478 2.14709ZM4.85404 4.64609C4.9006 4.69254 4.93755 4.74771 4.96275 4.80846C4.98796 4.8692 5.00093 4.93433 5.00093 5.00009C5.00093 5.06586 4.98796 5.13098 4.96275 5.19173C4.93755 5.25247 4.9006 5.30765 4.85404 5.35409L1.70704 8.50009L4.85404 11.6461C4.94793 11.74 5.00067 11.8673 5.00067 12.0001C5.00067 12.1329 4.94793 12.2602 4.85404 12.3541C4.76015 12.448 4.63281 12.5007 4.50004 12.5007C4.36726 12.5007 4.23993 12.448 4.14604 12.3541L0.646039 8.85409C0.599476 8.80765 0.562533 8.75247 0.537327 8.69173C0.51212 8.63098 0.499146 8.56586 0.499146 8.50009C0.499146 8.43433 0.51212 8.3692 0.537327 8.30846C0.562533 8.24771 0.599476 8.19254 0.646039 8.14609L4.14604 4.64609C4.19248 4.59953 4.24766 4.56259 4.30841 4.53738C4.36915 4.51217 4.43427 4.4992 4.50004 4.4992C4.56581 4.4992 4.63093 4.51217 4.69167 4.53738C4.75242 4.56259 4.80759 4.59953 4.85404 4.64609ZM11.146 4.64609C11.0995 4.69254 11.0625 4.74771 11.0373 4.80846C11.0121 4.8692 10.9991 4.93433 10.9991 5.00009C10.9991 5.06586 11.0121 5.13098 11.0373 5.19173C11.0625 5.25247 11.0995 5.30765 11.146 5.35409L14.293 8.50009L11.146 11.6461C11.0996 11.6926 11.0627 11.7478 11.0375 11.8085C11.0124 11.8692 10.9994 11.9344 10.9994 12.0001C10.9994 12.0658 11.0124 12.1309 11.0375 12.1917C11.0627 12.2524 11.0996 12.3076 11.146 12.3541C11.1925 12.4006 11.2477 12.4375 11.3085 12.4626C11.3692 12.4878 11.4343 12.5007 11.5 12.5007C11.5658 12.5007 11.6309 12.4878 11.6916 12.4626C11.7524 12.4375 11.8076 12.4006 11.854 12.3541L15.354 8.85409C15.4006 8.80765 15.4375 8.75247 15.4628 8.69173C15.488 8.63098 15.5009 8.56586 15.5009 8.50009C15.5009 8.43433 15.488 8.3692 15.4628 8.30846C15.4375 8.24771 15.4006 8.19254 15.354 8.14609L11.854 4.64609C11.8076 4.59953 11.7524 4.56259 11.6917 4.53738C11.6309 4.51217 11.5658 4.4992 11.5 4.4992C11.4343 4.4992 11.3692 4.51217 11.3084 4.53738C11.2477 4.56259 11.1925 4.59953 11.146 4.64609Z" fill="#9CA3AF"/>
</svg>
