<svg width="23" height="23" viewBox="0 0 23 23" fill="none" xmlns="http://www.w3.org/2000/svg">
<path d="M11.1738 2.30762C6.03441 2.30762 1.86328 6.47875 1.86328 11.6182C1.86328 16.7576 6.03441 20.9287 11.1738 20.9287C16.3133 20.9287 20.4844 16.7576 20.4844 11.6182C20.4844 6.47875 16.3133 2.30762 11.1738 2.30762ZM11.1738 19.0666C7.06789 19.0666 3.72539 15.7241 3.72539 11.6182C3.72539 7.51222 7.06789 4.16973 11.1738 4.16973C15.2798 4.16973 18.6223 7.51222 18.6223 11.6182C18.6223 15.7241 15.2798 19.0666 11.1738 19.0666ZM6.05304 16.739L13.0453 13.4896L16.2947 6.49737L9.30242 9.74676L6.05304 16.739ZM11.1738 10.594C11.7418 10.594 12.198 11.0502 12.198 11.6182C12.198 12.1861 11.7418 12.6423 11.1738 12.6423C10.6059 12.6423 10.1497 12.1861 10.1497 11.6182C10.1497 11.0502 10.6059 10.594 11.1738 10.594Z" fill="white"/>
</svg>
