<svg width="21" height="22" viewBox="0 0 21 22" fill="none" xmlns="http://www.w3.org/2000/svg">
<path d="M14.5339 4.22387C14.3071 4.22387 14.0896 4.13378 13.9292 3.97342C13.7689 3.81306 13.6788 3.59556 13.6788 3.36877C13.6788 3.14198 13.7689 2.92449 13.9292 2.76412C14.0896 2.60376 14.3071 2.51367 14.5339 2.51367H17.9543C18.1811 2.51367 18.3986 2.60376 18.5589 2.76412C18.7193 2.92449 18.8094 3.14198 18.8094 3.36877V6.78917C18.8094 7.01596 18.7193 7.23345 18.5589 7.39382C18.3986 7.55418 18.1811 7.64427 17.9543 7.64427C17.7275 7.64427 17.51 7.55418 17.3496 7.39382C17.1893 7.23345 17.0992 7.01596 17.0992 6.78917V5.43298L12.1456 10.3866C11.9852 10.5469 11.7678 10.6369 11.541 10.6369C11.3143 10.6369 11.0968 10.5469 10.9365 10.3866L8.5482 7.99828L4.02215 12.5243C3.86088 12.6801 3.64488 12.7663 3.42068 12.7643C3.19647 12.7624 2.982 12.6724 2.82346 12.5139C2.66492 12.3554 2.57499 12.1409 2.57304 11.9167C2.57109 11.6925 2.65728 11.4765 2.81304 11.3152L7.94364 6.18461C8.104 6.02431 8.32145 5.93425 8.5482 5.93425C8.77494 5.93425 8.9924 6.02431 9.15275 6.18461L11.541 8.57291L15.8901 4.22387H14.5339ZM4.2727 16.1953V18.7606C4.2727 18.9874 4.18261 19.2048 4.02225 19.3652C3.86188 19.5256 3.64439 19.6157 3.4176 19.6157C3.19081 19.6157 2.97332 19.5256 2.81295 19.3652C2.65259 19.2048 2.5625 18.9874 2.5625 18.7606V16.1953C2.5625 15.9685 2.65259 15.751 2.81295 15.5906C2.97332 15.4303 3.19081 15.3402 3.4176 15.3402C3.64439 15.3402 3.86188 15.4303 4.02225 15.5906C4.18261 15.751 4.2727 15.9685 4.2727 16.1953ZM8.5482 12.7749C8.5482 12.5481 8.45811 12.3306 8.29774 12.1702C8.13738 12.0099 7.91988 11.9198 7.6931 11.9198C7.46631 11.9198 7.24881 12.0099 7.08845 12.1702C6.92809 12.3306 6.838 12.5481 6.838 12.7749V18.7606C6.838 18.9874 6.92809 19.2048 7.08845 19.3652C7.24881 19.5256 7.46631 19.6157 7.6931 19.6157C7.91988 19.6157 8.13738 19.5256 8.29774 19.3652C8.45811 19.2048 8.5482 18.9874 8.5482 18.7606V12.7749ZM11.9686 13.63C12.1954 13.63 12.4129 13.7201 12.5732 13.8804C12.7336 14.0408 12.8237 14.2583 12.8237 14.4851V18.7606C12.8237 18.9874 12.7336 19.2048 12.5732 19.3652C12.4129 19.5256 12.1954 19.6157 11.9686 19.6157C11.7418 19.6157 11.5243 19.5256 11.3639 19.3652C11.2036 19.2048 11.1135 18.9874 11.1135 18.7606V14.4851C11.1135 14.2583 11.2036 14.0408 11.3639 13.8804C11.5243 13.7201 11.7418 13.63 11.9686 13.63ZM17.0992 10.2096C17.0992 9.98278 17.0091 9.76528 16.8487 9.60492C16.6884 9.44456 16.4709 9.35447 16.2441 9.35447C16.0173 9.35447 15.7998 9.44456 15.6394 9.60492C15.4791 9.76528 15.389 9.98278 15.389 10.2096V18.7606C15.389 18.9874 15.4791 19.2048 15.6394 19.3652C15.7998 19.5256 16.0173 19.6157 16.2441 19.6157C16.4709 19.6157 16.6884 19.5256 16.8487 19.3652C17.0091 19.2048 17.0992 18.9874 17.0992 18.7606V10.2096Z" fill="white"/>
</svg>
