<svg width="20" height="21" viewBox="0 0 20 21" fill="none" xmlns="http://www.w3.org/2000/svg">
<path d="M9.8476 2.43555L6.56402 6.54002L9.0267 6.54002L9.0267 13.9281L10.6685 13.9281L10.6685 6.54002L13.1312 6.54002L9.8476 2.43555Z" fill="white"/>
<path d="M17.2405 11.4644C17.2432 10.4937 17.0533 9.53215 16.6817 8.6354C16.3101 7.73865 15.7643 6.92454 15.0758 6.24023L13.9151 7.40098C15.0003 8.4862 15.5987 9.92934 15.5987 11.4644C15.5987 12.9995 15.0003 14.4426 13.9151 15.5278C12.8299 16.6131 11.3867 17.2115 9.85165 17.2115C8.31657 17.2115 6.87344 16.6131 5.78821 15.5278C4.70299 14.4426 4.10456 12.9995 4.10456 11.4644C4.10456 9.92934 4.70299 8.4862 5.78821 7.40098L4.62747 6.24023C3.23194 7.63494 2.46277 9.49016 2.46277 11.4644C2.46277 13.4387 3.23194 15.2939 4.62747 16.6886C6.02217 18.0841 7.87739 18.8533 9.85165 18.8533C11.8259 18.8533 13.6811 18.0841 15.0758 16.6886C15.7643 16.0043 16.3101 15.1902 16.6817 14.2934C17.0533 13.3967 17.2432 12.4351 17.2405 11.4644Z" fill="white"/>
</svg>
