<svg width="22" height="23" viewBox="0 0 22 23" fill="none" xmlns="http://www.w3.org/2000/svg">
<path d="M1.375 7.33398C1.375 6.51347 1.70095 5.72656 2.28114 5.14637C2.86133 4.56618 3.64824 4.24023 4.46875 4.24023H17.5312C18.3518 4.24023 19.1387 4.56618 19.7189 5.14637C20.2991 5.72656 20.625 6.51347 20.625 7.33398V16.2715C20.625 17.092 20.2991 17.8789 19.7189 18.4591C19.1387 19.0393 18.3518 19.3652 17.5312 19.3652H4.46875C3.64824 19.3652 2.86133 19.0393 2.28114 18.4591C1.70095 17.8789 1.375 17.092 1.375 16.2715V7.33398ZM4.46875 5.61523C4.01291 5.61523 3.57574 5.79632 3.25341 6.11864C2.93108 6.44097 2.75 6.87814 2.75 7.33398V8.36523H19.25V7.33398C19.25 6.87814 19.0689 6.44097 18.7466 6.11864C18.4243 5.79632 17.9871 5.61523 17.5312 5.61523H4.46875ZM2.75 16.2715C2.75 16.7273 2.93108 17.1645 3.25341 17.4868C3.57574 17.8092 4.01291 17.9902 4.46875 17.9902H17.5312C17.9871 17.9902 18.4243 17.8092 18.7466 17.4868C19.0689 17.1645 19.25 16.7273 19.25 16.2715V9.74023H2.75V16.2715ZM14.4375 13.8652H16.5C16.6823 13.8652 16.8572 13.9377 16.9861 14.0666C17.1151 14.1955 17.1875 14.3704 17.1875 14.5527C17.1875 14.7351 17.1151 14.9099 16.9861 15.0389C16.8572 15.1678 16.6823 15.2402 16.5 15.2402H14.4375C14.2552 15.2402 14.0803 15.1678 13.9514 15.0389C13.8224 14.9099 13.75 14.7351 13.75 14.5527C13.75 14.3704 13.8224 14.1955 13.9514 14.0666C14.0803 13.9377 14.2552 13.8652 14.4375 13.8652Z" fill="white"/>
</svg>
