<svg width="22" height="23" viewBox="0 0 22 23" fill="none" xmlns="http://www.w3.org/2000/svg">
<path d="M3.66927 20.0514C3.1651 20.0514 2.73366 19.8721 2.37494 19.5133C2.0156 19.154 1.83594 18.7223 1.83594 18.2181V8.13477C1.83594 7.6306 2.0156 7.19915 2.37494 6.84043C2.73366 6.4811 3.1651 6.30143 3.66927 6.30143H7.33594V4.4681C7.33594 3.96393 7.5156 3.53218 7.87494 3.17285C8.23366 2.81413 8.6651 2.63477 9.16927 2.63477H12.8359C13.3401 2.63477 13.7719 2.81413 14.1312 3.17285C14.4899 3.53218 14.6693 3.96393 14.6693 4.4681V6.30143H18.3359C18.8401 6.30143 19.2719 6.4811 19.6312 6.84043C19.9899 7.19915 20.1693 7.6306 20.1693 8.13477V18.2181C20.1693 18.7223 19.9899 19.154 19.6312 19.5133C19.2719 19.8721 18.8401 20.0514 18.3359 20.0514H3.66927ZM3.66927 18.2181H18.3359V8.13477H3.66927V18.2181ZM9.16927 6.30143H12.8359V4.4681H9.16927V6.30143ZM3.66927 18.2181V8.13477V18.2181Z" fill="white"/>
</svg>
