<svg width="22" height="23" viewBox="0 0 22 23" fill="none" xmlns="http://www.w3.org/2000/svg">
<path d="M12.7885 17.8426C12.5482 17.8426 12.3178 17.938 12.1479 18.108C11.9779 18.2779 11.8825 18.5083 11.8825 18.7486C11.8825 18.9889 11.9779 19.2194 12.1479 19.3893C12.3178 19.5592 12.5482 19.6547 12.7885 19.6547H17.3188C17.7994 19.6547 18.2603 19.4638 18.6002 19.1239C18.94 18.7841 19.1309 18.3232 19.1309 17.8426V5.15781C19.1309 4.67721 18.94 4.21629 18.6002 3.87646C18.2603 3.53662 17.7994 3.3457 17.3188 3.3457H12.7885C12.5482 3.3457 12.3178 3.44116 12.1479 3.61108C11.9779 3.781 11.8825 4.01146 11.8825 4.25176C11.8825 4.49206 11.9779 4.72252 12.1479 4.89244C12.3178 5.06235 12.5482 5.15781 12.7885 5.15781H17.3188V17.8426H12.7885Z" fill="#8807F7"/>
<path d="M14.3415 12.1341C14.5072 11.9657 14.6003 11.7389 14.6006 11.5026V11.4972C14.6002 11.2578 14.5047 11.0284 14.3352 10.8593L10.7109 7.2351C10.6274 7.14857 10.5274 7.07954 10.4168 7.03206C10.3063 6.98457 10.1874 6.95958 10.0671 6.95853C9.94679 6.95748 9.82748 6.98041 9.71613 7.02597C9.60478 7.07152 9.50362 7.1388 9.41855 7.22387C9.33348 7.30895 9.2662 7.41011 9.22064 7.52146C9.17508 7.63281 9.15216 7.75212 9.1532 7.87242C9.15425 7.99273 9.17924 8.11162 9.22673 8.22216C9.27421 8.33271 9.34324 8.43268 9.42978 8.51627L11.5074 10.5938H2.82192C2.58162 10.5938 2.35116 10.6893 2.18124 10.8592C2.01132 11.0291 1.91586 11.2596 1.91586 11.4999C1.91586 11.7402 2.01132 11.9707 2.18124 12.1406C2.35116 12.3105 2.58162 12.406 2.82192 12.406H11.5074L9.42978 14.4835C9.34324 14.5671 9.27421 14.6671 9.22673 14.7776C9.17924 14.8882 9.15425 15.0071 9.1532 15.1274C9.15216 15.2477 9.17508 15.367 9.22064 15.4783C9.2662 15.5897 9.33348 15.6909 9.41855 15.7759C9.50362 15.861 9.60478 15.9283 9.71613 15.9738C9.82748 16.0194 9.94679 16.0423 10.0671 16.0413C10.1874 16.0402 10.3063 16.0152 10.4168 15.9678C10.5274 15.9203 10.6274 15.8512 10.7109 15.7647L14.3352 12.1405L14.3415 12.1341Z" fill="#8807F7"/>
</svg>
