<svg width="21" height="21" viewBox="0 0 21 21" fill="none" xmlns="http://www.w3.org/2000/svg">
<g clip-path="url(#clip0_2_3716)">
<path fill-rule="evenodd" clip-rule="evenodd" d="M0.133057 10.4783C0.133057 10.4783 4.02431 2.6958 10.5097 2.6958C16.9951 2.6958 20.8864 10.4783 20.8864 10.4783C20.8864 10.4783 16.9951 18.2608 10.5097 18.2608C4.02431 18.2608 0.133057 10.4783 0.133057 10.4783ZM2.48078 10.6469C2.44587 10.5909 2.41128 10.5347 2.37701 10.4783L2.48337 10.3097C2.90622 9.64817 3.52882 8.77004 4.32523 7.90229C5.96215 6.11361 8.0712 4.64143 10.5097 4.64143C12.9456 4.64143 15.0573 6.11361 16.6968 7.90229C17.4221 8.70017 18.0734 9.5624 18.6424 10.4783C18.0707 11.393 17.4187 12.2551 16.6942 13.0543C15.0573 14.843 12.9482 16.3152 10.5097 16.3152C8.0738 16.3152 5.96215 14.843 4.32263 13.0543C3.64125 12.3058 3.02506 11.5004 2.48078 10.6469V10.6469ZM14.401 10.4783C14.4007 11.2974 14.142 12.0956 13.6616 12.7591C13.1812 13.4226 12.5037 13.9176 11.7256 14.1736C10.9475 14.4295 10.1084 14.4334 9.32796 14.1846C8.54751 13.9358 7.86547 13.4471 7.379 12.7881C6.89253 12.129 6.62644 11.3333 6.61865 10.5142C6.61085 9.69506 6.86175 8.89439 7.33559 8.2262C7.80943 7.55802 8.48206 7.05641 9.25763 6.79284C10.0332 6.52926 10.8722 6.51716 11.655 6.75826C11.3684 6.88799 11.1174 7.0853 10.9238 7.33329C10.7301 7.58127 10.5995 7.87253 10.5431 8.18209C10.4867 8.49165 10.5062 8.81027 10.5999 9.11062C10.6937 9.41098 10.8589 9.68412 11.0814 9.90661C11.3039 10.1291 11.577 10.2943 11.8774 10.3881C12.1778 10.4818 12.4964 10.5014 12.8059 10.445C13.1155 10.3886 13.4067 10.2579 13.6547 10.0642C13.9027 9.87057 14.1 9.61964 14.2298 9.33297C14.3436 9.70407 14.4013 10.0901 14.401 10.4783V10.4783Z" fill="white"/>
</g>
<defs>
<clipPath id="clip0_2_3716">
<rect width="20.7533" height="20.7533" fill="white" transform="translate(0.133057 0.101562)"/>
</clipPath>
</defs>
</svg>
