<svg width="95" height="24" viewBox="0 0 95 24" fill="none" xmlns="http://www.w3.org/2000/svg">
<path d="M0.696132 23.2478L8.83163 1.50635H13.1893L21.3248 23.2478H17.07L15.0782 17.9737H6.97075L4.97895 23.2478H0.677429H0.696132ZM8.33602 14.4483H13.7597L11.0198 6.14452L8.33602 14.4483Z" fill="white"/>
<path d="M23.5032 23.2475V8.51943H27.3559V11.97C27.7112 10.7076 28.2723 9.76313 29.0391 9.1366C29.7965 8.51008 30.6288 8.19214 31.5359 8.19214C32.4429 8.19214 33.2565 8.36981 33.9578 8.7345L33.2939 12.1851C32.7047 11.9139 31.966 11.783 31.0589 11.783C28.5902 11.783 27.3652 13.8683 27.3652 18.0295V23.2475H23.5126H23.5032Z" fill="white"/>
<path d="M35.8365 19.0489C35.4438 18.0857 35.2474 17.0291 35.2474 15.8976C35.2474 14.7661 35.4438 13.7094 35.8365 12.7275C36.2293 11.7457 36.7529 10.9321 37.4169 10.2682C38.0808 9.61361 38.8569 9.09929 39.7359 8.7346C40.6243 8.3699 41.5501 8.18288 42.5226 8.18288C43.4951 8.18288 44.4489 8.38861 45.2905 8.79071C46.1321 9.1928 46.7493 9.76322 47.1514 10.4833V0.477539H51.0041V23.2382H47.1514V21.2371C46.7493 21.9571 46.1321 22.5275 45.2812 22.9296C44.4396 23.3411 43.5138 23.5375 42.5226 23.5375C41.5314 23.5375 40.6243 23.3504 39.7453 22.9857C38.8663 22.621 38.0901 22.1161 37.4262 21.4615C36.7623 20.8069 36.2293 20.0027 35.8365 19.0302V19.0489ZM39.2871 15.8415C39.2871 17.0291 39.6611 17.9922 40.3999 18.7403C41.148 19.4884 42.0644 19.8625 43.1585 19.8625C44.2526 19.8625 45.169 19.4884 45.9451 18.7497C46.7212 18.0109 47.0953 17.0384 47.0953 15.8508C47.0953 14.6632 46.7025 13.7001 45.9171 12.98C45.1316 12.26 44.2151 11.9046 43.1585 11.9046C42.1018 11.9046 41.1386 12.2693 40.3999 12.9987C39.6611 13.7281 39.2871 14.6819 39.2871 15.8602V15.8415Z" fill="white"/>
<path d="M54.7094 2.79662C54.7094 2.15139 54.9525 1.59968 55.4481 1.15082C55.9437 0.701966 56.5235 0.477539 57.1968 0.477539C57.8701 0.477539 58.4405 0.701966 58.9268 1.15082C59.413 1.59968 59.6468 2.14204 59.6468 2.79662C59.6468 3.4512 59.4037 4.00292 58.9268 4.45178C58.4499 4.90063 57.8701 5.12506 57.1968 5.12506C56.5235 5.12506 55.925 4.90063 55.4388 4.45178C54.9525 4.00292 54.7094 3.4512 54.7094 2.79662ZM55.2518 23.2476V8.51952H59.1044V23.2476H55.2518Z" fill="white"/>
<path d="M63.4393 23.2475V5.125H67.2919V23.2475H63.4393Z" fill="white"/>
<path d="M71.6303 23.2477V0.487061H75.483V23.2477H71.6303Z" fill="white"/>
<path d="M78.9258 15.8601C78.9258 14.7099 79.1316 13.6532 79.5524 12.6713C79.9732 11.6988 80.5342 10.8853 81.2356 10.24C81.9369 9.59481 82.7411 9.08985 83.6482 8.7345C84.5552 8.37916 85.4997 8.19214 86.4816 8.19214C87.2951 8.19214 88.1367 8.36046 89.0064 8.70645C89.876 9.05244 90.5587 9.59481 91.0543 10.3335V8.51008H94.907V23.2381H91.0543V21.3305C90.6241 22.0318 89.9602 22.5742 89.0625 22.9482C88.1648 23.3223 87.3045 23.5093 86.4909 23.5093C85.1724 23.5093 83.9474 23.2007 82.8066 22.5929C81.6657 21.9851 80.7306 21.078 80.0106 19.8904C79.2905 18.7028 78.9352 17.3563 78.9352 15.8414L78.9258 15.8601ZM82.9656 15.8601C82.9656 17.0103 83.3677 17.9547 84.1812 18.7028C84.9948 19.4509 85.9392 19.825 87.0239 19.825C88.1087 19.825 89.0625 19.4696 89.8573 18.7496C90.6522 18.0295 91.0449 17.0664 91.0449 15.8601C91.0449 14.6538 90.6428 13.6906 89.8386 12.9706C89.0345 12.2505 88.09 11.8952 87.0146 11.8952C85.9392 11.8952 84.9667 12.2692 84.1625 13.008C83.3583 13.7561 82.9562 14.7005 82.9562 15.8601H82.9656Z" fill="white"/>
</svg>
