<svg width="165" height="174" viewBox="0 0 165 174" fill="none" xmlns="http://www.w3.org/2000/svg">
<g clip-path="url(#clip0_3_6244)">
<path d="M68.3333 40.7022C68.3333 51.7645 68.3333 62.859 68.3978 73.9213C68.3978 83.4677 65.3017 92.7561 56.4325 97.6584C46.0798 103.335 31.3731 101.883 19.827 100.69C19.3755 100.69 18.9885 100.593 18.5692 100.561C18.9562 92.5949 18.795 84.532 18.408 76.5982C17.9242 65.8262 24.439 52.9901 36.0173 51.184C48.5631 49.2166 59.4964 47.8621 65.4307 40.928C65.6242 40.7345 65.8177 40.5087 65.9789 40.283C66.8497 39.0897 67.785 37.9609 68.7203 36.7998C68.43 38.0576 68.3333 39.3799 68.3333 40.67V40.7022Z" fill="white" fill-opacity="0.1"/>
<path d="M30.3799 172.836C39.0233 173.385 47.7312 173.256 56.3746 173.417C66.4693 173.578 76.8221 174.836 86.562 173.062C100.559 170.514 116.298 161.387 121.49 147.874C126.296 135.36 124.038 120.428 115.75 109.914C115.169 109.204 114.556 108.495 113.879 107.785C105.494 98.6257 92.4963 93.8202 80.1117 95.4651C64.7278 97.4969 51.1821 109.591 47.1829 124.588C44.6996 133.941 46.8604 143.875 45.4091 153.389C44.2158 161.258 37.4752 169.321 30.3477 172.836H30.3799Z" fill="white" fill-opacity="0.1"/>
<path d="M116.86 5C116.086 7.35436 117.021 9.90223 118.021 12.1598C130.857 40.7669 165.237 60.1178 164.044 94.4979C163.495 110.043 155.755 128.297 142.758 137.521C141.822 138.199 140.951 138.779 139.855 139.102C137.372 134.458 137.114 127.685 135.017 122.589C132.373 116.171 128.889 109.882 124.019 104.915C119.343 100.174 113.505 97.4328 108.829 92.7886C99.0245 82.9841 92.8322 69.5675 92.026 55.6994C90.8649 35.9614 100.734 16.3525 116.892 5.0645L116.86 5Z" fill="white" fill-opacity="0.1"/>
<path d="M27.5703 74.0182C27.5703 74.0182 27.1188 65.4071 35.9557 65.8264C35.9557 65.8264 39.1808 75.2438 27.5703 74.0182Z" fill="#8807F7" stroke="white" stroke-opacity="0.1" stroke-width="1.35608" stroke-miterlimit="10"/>
<path d="M24.6422 147.034C32.7288 147.034 39.2844 140.479 39.2844 132.392C39.2844 124.306 32.7288 117.75 24.6422 117.75C16.5555 117.75 10 124.306 10 132.392C10 140.479 16.5555 147.034 24.6422 147.034Z" fill="white" fill-opacity="0.1"/>
</g>
<g clip-path="url(#clip1_3_6244)">
<path d="M58.3333 35.7022C58.3333 46.7645 58.3333 57.859 58.3978 68.9213C58.3978 78.4677 55.3017 87.7561 46.4325 92.6584C36.0798 98.3346 21.3731 96.8833 9.82704 95.69C9.37552 95.69 8.9885 95.5933 8.56923 95.561C8.95625 87.5949 8.79499 79.532 8.40797 71.5982C7.9242 60.8262 14.439 47.9901 26.0173 46.184C38.5631 44.2166 49.4964 42.8621 55.4307 35.928C55.6242 35.7345 55.8177 35.5087 55.9789 35.283C56.8497 34.0897 57.785 32.9609 58.7203 31.7998C58.43 33.0576 58.3333 34.3799 58.3333 35.67V35.7022Z" fill="white"/>
<path d="M20.3799 167.836C29.0233 168.385 37.7312 168.256 46.3746 168.417C56.4693 168.578 66.8221 169.836 76.562 168.062C90.5592 165.514 106.298 156.387 111.49 142.874C116.296 130.36 114.038 115.428 105.75 104.914C105.169 104.204 104.556 103.495 103.879 102.785C95.4936 93.6257 82.4963 88.8202 70.1117 90.4651C54.7278 92.4969 41.1821 104.591 37.1829 119.588C34.6996 128.941 36.8604 138.875 35.4091 148.389C34.2158 156.258 27.4752 164.321 20.3477 167.836H20.3799Z" fill="white"/>
<path d="M106.86 0C106.086 2.35436 107.021 4.90223 108.021 7.15983C120.857 35.7669 155.237 55.1178 154.044 89.4979C153.495 105.043 145.755 123.297 132.758 132.521C131.822 133.199 130.951 133.779 129.855 134.102C127.372 129.458 127.114 122.685 125.017 117.589C122.373 111.171 118.889 104.882 114.019 99.9151C109.343 95.1742 103.505 92.4328 98.829 87.7886C89.0245 77.9841 82.8322 64.5675 82.026 50.6994C80.8649 30.9614 90.7339 11.3525 106.892 0.064503L106.86 0Z" fill="white"/>
<path d="M17.5703 69.0182C17.5703 69.0182 17.1188 60.4071 25.9557 60.8264C25.9557 60.8264 29.1808 70.2438 17.5703 69.0182Z" fill="#8807F7" stroke="white" stroke-width="1.35608" stroke-miterlimit="10"/>
<path d="M14.6422 142.034C22.7288 142.034 29.2844 135.479 29.2844 127.392C29.2844 119.306 22.7288 112.75 14.6422 112.75C6.55553 112.75 0 119.306 0 127.392C0 135.479 6.55553 142.034 14.6422 142.034Z" fill="white"/>
</g>
<defs>
<clipPath id="clip0_3_6244">
<rect width="154.074" height="169" fill="white" transform="translate(10 5)"/>
</clipPath>
<clipPath id="clip1_3_6244">
<rect width="154.074" height="169" fill="white"/>
</clipPath>
</defs>
</svg>
